<svg width="193" height="40" viewBox="0 0 193 40" fill="none" xmlns="http://www.w3.org/2000/svg">
<circle cx="191" cy="2" r="2" transform="rotate(90 191 2)" fill="#29FFFF"/>
<circle cx="181.053" cy="2" r="2" transform="rotate(90 181.053 2)" fill="#29FFFF"/>
<circle cx="171.105" cy="2" r="2" transform="rotate(90 171.105 2)" fill="#29FFFF"/>
<circle cx="161.158" cy="2" r="2" transform="rotate(90 161.158 2)" fill="#29FFFF"/>
<circle cx="151.21" cy="2" r="2" transform="rotate(90 151.21 2)" fill="#29FFFF"/>
<circle cx="141.263" cy="2" r="2" transform="rotate(90 141.263 2)" fill="#29FFFF"/>
<circle cx="131.316" cy="2" r="2" transform="rotate(90 131.316 2)" fill="#29FFFF"/>
<circle cx="121.368" cy="2" r="2" transform="rotate(90 121.368 2)" fill="#29FFFF"/>
<circle cx="111.421" cy="2" r="2" transform="rotate(90 111.421 2)" fill="#29FFFF"/>
<circle cx="101.474" cy="2" r="2" transform="rotate(90 101.474 2)" fill="#29FFFF"/>
<circle cx="91.5264" cy="2" r="2" transform="rotate(90 91.5264 2)" fill="#29FFFF"/>
<circle cx="81.5789" cy="2" r="2" transform="rotate(90 81.5789 2)" fill="#29FFFF"/>
<circle cx="71.6316" cy="2" r="2" transform="rotate(90 71.6316 2)" fill="#29FFFF"/>
<circle cx="61.6841" cy="2" r="2" transform="rotate(90 61.6841 2)" fill="#29FFFF"/>
<circle cx="51.7368" cy="2" r="2" transform="rotate(90 51.7368 2)" fill="#29FFFF"/>
<circle cx="41.7896" cy="2" r="2" transform="rotate(90 41.7896 2)" fill="#29FFFF"/>
<circle cx="31.842" cy="2" r="2" transform="rotate(90 31.842 2)" fill="#29FFFF"/>
<circle cx="21.8948" cy="2" r="2" transform="rotate(90 21.8948 2)" fill="#29FFFF"/>
<circle cx="11.9473" cy="2" r="2" transform="rotate(90 11.9473 2)" fill="#29FFFF"/>
<circle cx="2" cy="2" r="2" transform="rotate(90 2 2)" fill="#29FFFF"/>
<circle cx="191" cy="11" r="2" transform="rotate(90 191 11)" fill="#29FFFF"/>
<circle cx="181.053" cy="11" r="2" transform="rotate(90 181.053 11)" fill="#29FFFF"/>
<circle cx="171.105" cy="11" r="2" transform="rotate(90 171.105 11)" fill="#29FFFF"/>
<circle cx="161.158" cy="11" r="2" transform="rotate(90 161.158 11)" fill="#29FFFF"/>
<circle cx="151.21" cy="11" r="2" transform="rotate(90 151.21 11)" fill="#29FFFF"/>
<circle cx="141.263" cy="11" r="2" transform="rotate(90 141.263 11)" fill="#29FFFF"/>
<circle cx="131.316" cy="11" r="2" transform="rotate(90 131.316 11)" fill="#29FFFF"/>
<circle cx="121.368" cy="11" r="2" transform="rotate(90 121.368 11)" fill="#29FFFF"/>
<circle cx="111.421" cy="11" r="2" transform="rotate(90 111.421 11)" fill="#29FFFF"/>
<circle cx="101.474" cy="11" r="2" transform="rotate(90 101.474 11)" fill="#29FFFF"/>
<circle cx="91.5264" cy="11" r="2" transform="rotate(90 91.5264 11)" fill="#29FFFF"/>
<circle cx="81.5789" cy="11" r="2" transform="rotate(90 81.5789 11)" fill="#29FFFF"/>
<circle cx="71.6316" cy="11" r="2" transform="rotate(90 71.6316 11)" fill="#29FFFF"/>
<circle cx="61.6841" cy="11" r="2" transform="rotate(90 61.6841 11)" fill="#29FFFF"/>
<circle cx="51.7368" cy="11" r="2" transform="rotate(90 51.7368 11)" fill="#29FFFF"/>
<circle cx="41.7896" cy="11" r="2" transform="rotate(90 41.7896 11)" fill="#29FFFF"/>
<circle cx="31.842" cy="11" r="2" transform="rotate(90 31.842 11)" fill="#29FFFF"/>
<circle cx="21.8948" cy="11" r="2" transform="rotate(90 21.8948 11)" fill="#29FFFF"/>
<circle cx="11.9473" cy="11" r="2" transform="rotate(90 11.9473 11)" fill="#29FFFF"/>
<circle cx="2" cy="11" r="2" transform="rotate(90 2 11)" fill="#29FFFF"/>
<circle cx="191" cy="20" r="2" transform="rotate(90 191 20)" fill="#29FFFF"/>
<circle cx="181.053" cy="20" r="2" transform="rotate(90 181.053 20)" fill="#29FFFF"/>
<circle cx="171.105" cy="20" r="2" transform="rotate(90 171.105 20)" fill="#29FFFF"/>
<circle cx="161.158" cy="20" r="2" transform="rotate(90 161.158 20)" fill="#29FFFF"/>
<circle cx="151.21" cy="20" r="2" transform="rotate(90 151.21 20)" fill="#29FFFF"/>
<circle cx="141.263" cy="20" r="2" transform="rotate(90 141.263 20)" fill="#29FFFF"/>
<circle cx="131.316" cy="20" r="2" transform="rotate(90 131.316 20)" fill="#29FFFF"/>
<circle cx="121.368" cy="20" r="2" transform="rotate(90 121.368 20)" fill="#29FFFF"/>
<circle cx="111.421" cy="20" r="2" transform="rotate(90 111.421 20)" fill="#29FFFF"/>
<circle cx="101.474" cy="20" r="2" transform="rotate(90 101.474 20)" fill="#29FFFF"/>
<circle cx="91.5264" cy="20" r="2" transform="rotate(90 91.5264 20)" fill="#29FFFF"/>
<circle cx="81.5789" cy="20" r="2" transform="rotate(90 81.5789 20)" fill="#29FFFF"/>
<circle cx="71.6316" cy="20" r="2" transform="rotate(90 71.6316 20)" fill="#29FFFF"/>
<circle cx="61.6841" cy="20" r="2" transform="rotate(90 61.6841 20)" fill="#29FFFF"/>
<circle cx="51.7368" cy="20" r="2" transform="rotate(90 51.7368 20)" fill="#29FFFF"/>
<circle cx="41.7896" cy="20" r="2" transform="rotate(90 41.7896 20)" fill="#29FFFF"/>
<circle cx="31.842" cy="20" r="2" transform="rotate(90 31.842 20)" fill="#29FFFF"/>
<circle cx="21.8948" cy="20" r="2" transform="rotate(90 21.8948 20)" fill="#29FFFF"/>
<circle cx="11.9473" cy="20" r="2" transform="rotate(90 11.9473 20)" fill="#29FFFF"/>
<circle cx="2" cy="20" r="2" transform="rotate(90 2 20)" fill="#29FFFF"/>
<circle cx="191" cy="29" r="2" transform="rotate(90 191 29)" fill="#29FFFF"/>
<circle cx="181.053" cy="29" r="2" transform="rotate(90 181.053 29)" fill="#29FFFF"/>
<circle cx="171.105" cy="29" r="2" transform="rotate(90 171.105 29)" fill="#29FFFF"/>
<circle cx="161.158" cy="29" r="2" transform="rotate(90 161.158 29)" fill="#29FFFF"/>
<circle cx="151.21" cy="29" r="2" transform="rotate(90 151.21 29)" fill="#29FFFF"/>
<circle cx="141.263" cy="29" r="2" transform="rotate(90 141.263 29)" fill="#29FFFF"/>
<circle cx="131.316" cy="29" r="2" transform="rotate(90 131.316 29)" fill="#29FFFF"/>
<circle cx="121.368" cy="29" r="2" transform="rotate(90 121.368 29)" fill="#29FFFF"/>
<circle cx="111.421" cy="29" r="2" transform="rotate(90 111.421 29)" fill="#29FFFF"/>
<circle cx="101.474" cy="29" r="2" transform="rotate(90 101.474 29)" fill="#29FFFF"/>
<circle cx="91.5264" cy="29" r="2" transform="rotate(90 91.5264 29)" fill="#29FFFF"/>
<circle cx="81.5789" cy="29" r="2" transform="rotate(90 81.5789 29)" fill="#29FFFF"/>
<circle cx="71.6316" cy="29" r="2" transform="rotate(90 71.6316 29)" fill="#29FFFF"/>
<circle cx="61.6841" cy="29" r="2" transform="rotate(90 61.6841 29)" fill="#29FFFF"/>
<circle cx="51.7368" cy="29" r="2" transform="rotate(90 51.7368 29)" fill="#29FFFF"/>
<circle cx="41.7896" cy="29" r="2" transform="rotate(90 41.7896 29)" fill="#29FFFF"/>
<circle cx="31.842" cy="29" r="2" transform="rotate(90 31.842 29)" fill="#29FFFF"/>
<circle cx="21.8948" cy="29" r="2" transform="rotate(90 21.8948 29)" fill="#29FFFF"/>
<circle cx="11.9473" cy="29" r="2" transform="rotate(90 11.9473 29)" fill="#29FFFF"/>
<circle cx="2" cy="29" r="2" transform="rotate(90 2 29)" fill="#29FFFF"/>
<circle cx="191" cy="38" r="2" transform="rotate(90 191 38)" fill="white" fill-opacity="0.25"/>
<circle cx="181.053" cy="38" r="2" transform="rotate(90 181.053 38)" fill="white" fill-opacity="0.25"/>
<circle cx="171.105" cy="38" r="2" transform="rotate(90 171.105 38)" fill="white" fill-opacity="0.25"/>
<circle cx="161.158" cy="38" r="2" transform="rotate(90 161.158 38)" fill="white" fill-opacity="0.25"/>
<circle cx="151.21" cy="38" r="2" transform="rotate(90 151.21 38)" fill="white" fill-opacity="0.25"/>
<circle cx="141.263" cy="38" r="2" transform="rotate(90 141.263 38)" fill="#29FFFF"/>
<circle cx="131.316" cy="38" r="2" transform="rotate(90 131.316 38)" fill="#29FFFF"/>
<circle cx="121.368" cy="38" r="2" transform="rotate(90 121.368 38)" fill="#29FFFF"/>
<circle cx="111.421" cy="38" r="2" transform="rotate(90 111.421 38)" fill="#29FFFF"/>
<circle cx="101.474" cy="38" r="2" transform="rotate(90 101.474 38)" fill="#29FFFF"/>
<circle cx="91.5264" cy="38" r="2" transform="rotate(90 91.5264 38)" fill="#29FFFF"/>
<circle cx="81.5789" cy="38" r="2" transform="rotate(90 81.5789 38)" fill="#29FFFF"/>
<circle cx="71.6316" cy="38" r="2" transform="rotate(90 71.6316 38)" fill="#29FFFF"/>
<circle cx="61.6841" cy="38" r="2" transform="rotate(90 61.6841 38)" fill="#29FFFF"/>
<circle cx="51.7368" cy="38" r="2" transform="rotate(90 51.7368 38)" fill="#29FFFF"/>
<circle cx="41.7896" cy="38" r="2" transform="rotate(90 41.7896 38)" fill="#29FFFF"/>
<circle cx="31.842" cy="38" r="2" transform="rotate(90 31.842 38)" fill="#29FFFF"/>
<circle cx="21.8948" cy="38" r="2" transform="rotate(90 21.8948 38)" fill="#29FFFF"/>
<circle cx="11.9473" cy="38" r="2" transform="rotate(90 11.9473 38)" fill="#29FFFF"/>
<circle cx="2" cy="38" r="2" transform="rotate(90 2 38)" fill="#29FFFF"/>
</svg>
