<svg width="26" height="26" viewBox="0 0 26 26" fill="none" xmlns="http://www.w3.org/2000/svg">
<path d="M13.0305 13C13.0305 10.6068 14.9706 8.66669 17.3638 8.66669C19.7571 8.66669 21.6972 10.6068 21.6972 13C21.6972 15.3933 19.757 17.3333 17.3638 17.3333C14.9706 17.3333 13.0305 15.3932 13.0305 13Z" fill="#00BCFF"/>
<path d="M4.36377 21.6667C4.36377 19.2734 6.30387 17.3333 8.69709 17.3333L11.0064 16.1141L13.0304 17.3333V21.6667C13.0304 24.0599 11.0903 26 8.69709 26C6.30387 26 4.36377 24.0599 4.36377 21.6667Z" fill="#00CF7F"/>
<path d="M13.0306 0L10.6726 4.09652L13.0306 8.66663H17.3031C19.6964 8.66663 21.6364 6.72653 21.6364 4.33332C21.6364 1.9401 19.6963 0 17.3031 0H13.0306Z" fill="#FF7361"/>
<path d="M4.30298 4.33332C4.30298 6.72653 6.24308 8.66663 8.63629 8.66663L10.935 9.55449L13.0304 8.66663V0H8.63624C6.24308 0 4.30298 1.9401 4.30298 4.33332Z" fill="#FF4D12"/>
<path d="M4.36377 13C4.36377 15.3933 6.30387 17.3333 8.69709 17.3333H13.0304V8.66663H8.69709C6.30387 8.66663 4.36377 10.6068 4.36377 13Z" fill="#B659FF"/>
</svg>
