<svg width="11" height="11" viewBox="0 0 11 11" fill="none" xmlns="http://www.w3.org/2000/svg">
<path d="M10.2923 3.37387L1.36039 0.060392L1.3477 0.0558217C1.1676 -0.00648774 0.973607 -0.0168697 0.787889 0.0258623C0.602172 0.0685943 0.432223 0.162716 0.29747 0.29747C0.162716 0.432223 0.0685943 0.602172 0.0258623 0.787889C-0.0168697 0.973607 -0.00648774 1.1676 0.0558217 1.3477L0.060392 1.36039L3.37387 10.2923C3.44411 10.4899 3.57378 10.6609 3.74508 10.7818C3.91638 10.9027 4.12091 10.9677 4.33059 10.9677H4.34836C4.56256 10.964 4.77009 10.8926 4.94129 10.7638C5.11248 10.6351 5.23857 10.4554 5.30153 10.2507L5.3061 10.2359L6.38418 6.38418L10.2359 5.30609L10.2507 5.30152C10.4554 5.23925 10.6353 5.11388 10.7645 4.94332C10.8938 4.77276 10.9659 4.56573 10.9705 4.35177C10.9751 4.1378 10.912 3.92785 10.7902 3.75187C10.6684 3.5759 10.4942 3.44289 10.2923 3.37184V3.37387ZM5.72555 5.30356C5.62477 5.33177 5.53296 5.38547 5.45896 5.45947C5.38496 5.53347 5.33127 5.62528 5.30305 5.72606L4.30367 9.29547L1.35988 1.35988L9.29496 4.3052L5.72555 5.30356Z" fill="black"/>
</svg>
