<svg width="104" height="28" viewBox="0 0 104 28" fill="none" xmlns="http://www.w3.org/2000/svg">
<path d="M35.3205 20.1638C34.8519 20.1897 34.3884 20.0544 34.0047 19.7798C33.8445 19.6592 33.7155 19.5007 33.629 19.3182C33.5425 19.1355 33.5011 18.9343 33.5084 18.7318V11.3158C33.5046 11.2845 33.5078 11.2526 33.518 11.2226C33.5281 11.1927 33.5448 11.1656 33.5668 11.1432C33.5889 11.1208 33.6156 11.1038 33.6451 11.0936C33.6745 11.0833 33.706 11.08 33.7369 11.0838H35.0605C35.2102 11.0838 35.2811 11.1638 35.2811 11.3158V18.1558C35.2811 18.4598 35.415 18.6118 35.6908 18.6118C35.8077 18.6167 35.9246 18.6033 36.0375 18.5718C36.195 18.5718 36.2817 18.6198 36.2896 18.7638L36.4078 19.7638C36.4134 19.793 36.4129 19.823 36.4062 19.852C36.3995 19.8809 36.3867 19.9081 36.3688 19.9315C36.3509 19.955 36.3282 19.9744 36.3023 19.9882C36.2764 20.0021 36.2479 20.0101 36.2187 20.0118C35.9287 20.1091 35.6258 20.1604 35.3205 20.1638Z" fill="#919191"/>
<path d="M42.766 19.3078C42.101 19.8658 41.2651 20.171 40.4024 20.171C39.5397 20.171 38.7039 19.8658 38.0387 19.3078C37.4542 18.7086 37.1262 17.8992 37.1262 17.0558C37.1262 16.2124 37.4542 15.403 38.0387 14.8038C38.7051 14.2487 39.5404 13.9453 40.4024 13.9453C41.2643 13.9453 42.0996 14.2487 42.766 14.8038C43.3371 15.4085 43.656 16.214 43.656 17.0518C43.656 17.8896 43.3371 18.6951 42.766 19.2998V19.3078ZM39.2836 18.2518C39.5923 18.5357 39.9938 18.6929 40.4103 18.6929C40.8267 18.6929 41.2283 18.5357 41.5369 18.2518C41.8163 17.9257 41.9701 17.508 41.9701 17.0758C41.9701 16.6436 41.8163 16.226 41.5369 15.8998C41.2283 15.616 40.8267 15.4587 40.4103 15.4587C39.9938 15.4587 39.5923 15.616 39.2836 15.8998C39.0043 16.226 38.8504 16.6436 38.8504 17.0758C38.8504 17.508 39.0043 17.9257 39.2836 18.2518Z" fill="#919191"/>
<path d="M50.9442 14.1477C51.0939 14.1477 51.1649 14.2277 51.1649 14.3797V20.1157C51.1786 20.5029 51.1073 20.8882 50.956 21.2438C50.8047 21.5995 50.5773 21.9165 50.2903 22.1717C49.6532 22.7233 48.834 23.0091 47.9976 22.9717C47.2422 22.9986 46.4967 22.7892 45.8624 22.3717C45.5916 22.1911 45.3602 21.9558 45.1826 21.6806C45.0051 21.4053 44.8851 21.096 44.8303 20.7717C44.8303 20.6117 44.8303 20.5397 45.043 20.5397H46.3667C46.4228 20.5416 46.4774 20.5601 46.5235 20.5927C46.5696 20.6253 46.6055 20.6708 46.6267 20.7237C46.7125 20.9666 46.8837 21.1689 47.1073 21.2917C47.3798 21.4345 47.6831 21.506 47.9897 21.4997C48.1747 21.51 48.3598 21.4827 48.5344 21.4195C48.7089 21.3564 48.8692 21.2585 49.0061 21.1317C49.1311 20.999 49.2283 20.842 49.292 20.6701C49.3556 20.4983 49.3843 20.3151 49.3764 20.1317V19.6277C48.9025 19.9816 48.3256 20.1646 47.7376 20.1477C47.326 20.1629 46.9157 20.0935 46.5311 19.9437C46.1466 19.7937 45.7959 19.5666 45.5 19.2757C44.932 18.679 44.6145 17.8816 44.6145 17.0517C44.6145 16.2218 44.932 15.4244 45.5 14.8277C45.7973 14.5393 46.1485 14.3144 46.5328 14.166C46.9171 14.0176 47.3267 13.9488 47.7376 13.9637C48.3427 13.9474 48.935 14.1423 49.4158 14.5157V14.3877C49.4121 14.357 49.4153 14.3259 49.425 14.2966C49.4347 14.2674 49.4507 14.2407 49.4718 14.2185C49.4929 14.1962 49.5187 14.1791 49.5471 14.1682C49.5756 14.1573 49.6061 14.1531 49.6364 14.1557L50.9442 14.1477ZM47.8873 18.7237C48.0902 18.7301 48.2922 18.6911 48.4787 18.6095C48.6651 18.528 48.8318 18.4058 48.9667 18.2517C49.2286 17.9082 49.3708 17.4861 49.3708 17.0517C49.3708 16.6173 49.2286 16.1952 48.9667 15.8517C48.8323 15.6997 48.6666 15.5793 48.4816 15.4991C48.2964 15.4189 48.0963 15.3809 47.8952 15.3877C47.6898 15.3811 47.4856 15.4199 47.2965 15.5014C47.1074 15.5829 46.938 15.7052 46.8 15.8597C46.5098 16.1882 46.3572 16.6187 46.3745 17.0597C46.3604 17.4963 46.5096 17.9222 46.7921 18.2517C46.9305 18.4057 47.0999 18.5277 47.289 18.6092C47.478 18.6906 47.682 18.7297 47.8873 18.7237Z" fill="#919191"/>
<path d="M57.9642 19.3077C57.2978 19.8628 56.4625 20.1662 55.6005 20.1662C54.7386 20.1662 53.9033 19.8628 53.2369 19.3077C52.6653 18.7016 52.3462 17.8949 52.3462 17.0557C52.3462 16.2166 52.6653 15.4097 53.2369 14.8037C53.9039 14.25 54.739 13.9475 55.6005 13.9475C56.4621 13.9475 57.2971 14.25 57.9642 14.8037C58.5353 15.4084 58.8541 16.2138 58.8541 17.0517C58.8541 17.8895 58.5353 18.695 57.9642 19.2997V19.3077ZM54.4739 18.2517C54.6249 18.3976 54.803 18.5116 54.9977 18.5871C55.1925 18.6626 55.4 18.6982 55.6084 18.6917C55.8155 18.6971 56.0216 18.6611 56.2149 18.5856C56.4083 18.5101 56.585 18.3966 56.7351 18.2517C57.0099 17.9233 57.1608 17.5065 57.1608 17.0757C57.1608 16.6448 57.0099 16.228 56.7351 15.8997C56.585 15.7548 56.4083 15.6413 56.2149 15.5658C56.0216 15.4903 55.8155 15.4542 55.6084 15.4597C55.4 15.4532 55.1925 15.4887 54.9977 15.5642C54.803 15.6398 54.6249 15.7538 54.4739 15.8997C54.1991 16.228 54.0482 16.6448 54.0482 17.0757C54.0482 17.5065 54.1991 17.9233 54.4739 18.2517Z" fill="#919191"/>
<path d="M61.6989 12.7878C61.4906 12.9729 61.2232 13.0749 60.9464 13.0749C60.6697 13.0749 60.4023 12.9729 60.194 12.7878C60.0996 12.6973 60.0244 12.5882 59.9729 12.4671C59.9216 12.3461 59.895 12.2156 59.895 12.0838C59.895 11.9519 59.9216 11.8215 59.9729 11.7004C60.0244 11.5794 60.0996 11.4703 60.194 11.3798C60.4045 11.1993 60.671 11.1003 60.9464 11.1003C61.2219 11.1003 61.4884 11.1993 61.6989 11.3798C61.7933 11.4703 61.8686 11.5794 61.9199 11.7004C61.9714 11.8215 61.9979 11.9519 61.9979 12.0838C61.9979 12.2156 61.9714 12.3461 61.9199 12.4671C61.8686 12.5882 61.7933 12.6973 61.6989 12.7878ZM61.8643 20.1638C61.396 20.1871 60.9333 20.0521 60.5486 19.7798C60.3908 19.6574 60.264 19.4983 60.179 19.316C60.094 19.1337 60.0532 18.9334 60.0601 18.7318V14.3798C60.0563 14.3484 60.0595 14.3165 60.0697 14.2866C60.0798 14.2567 60.0965 14.2295 60.1185 14.2071C60.1406 14.1847 60.1673 14.1678 60.1968 14.1575C60.2262 14.1472 60.2577 14.1439 60.2886 14.1478H61.6122C61.7619 14.1478 61.8328 14.2278 61.8328 14.3798V18.1558C61.8328 18.4598 61.9667 18.6118 62.2346 18.6118C62.3541 18.6162 62.4736 18.6027 62.5892 18.5718C62.7467 18.5718 62.8334 18.6198 62.8413 18.7638L62.9595 19.7638C62.9651 19.793 62.9646 19.823 62.9579 19.8519C62.9512 19.8808 62.9384 19.908 62.9205 19.9315C62.9026 19.955 62.8799 19.9743 62.8541 19.9882C62.8281 20.002 62.7996 20.0101 62.7704 20.0118C62.4779 20.1096 62.1723 20.1609 61.8643 20.1638Z" fill="#919191"/>
<path d="M67.8285 13.9557C68.2419 13.9392 68.6544 14.0071 69.0415 14.1555C69.4286 14.304 69.7824 14.5298 70.0818 14.8197C70.639 15.4269 70.9488 16.2259 70.9488 17.0557C70.9488 17.8856 70.639 18.6846 70.0818 19.2917C69.7838 19.5843 69.4305 19.8124 69.0431 19.9622C68.6558 20.1121 68.2426 20.1807 67.8285 20.1637C67.2385 20.1771 66.6603 19.9945 66.1818 19.6437V22.5317C66.1818 22.6837 66.103 22.7557 65.9533 22.7557H64.6297C64.5995 22.7615 64.5684 22.7596 64.539 22.7504C64.5097 22.7412 64.483 22.7248 64.4612 22.7028C64.4396 22.6807 64.4234 22.6536 64.4143 22.6238C64.4052 22.594 64.4035 22.5624 64.4091 22.5317V15.9717C64.4184 15.9076 64.4127 15.8421 64.3927 15.7805C64.3726 15.719 64.3386 15.663 64.2934 15.6172C64.2483 15.5713 64.1932 15.5368 64.1325 15.5164C64.0719 15.496 64.0074 15.4904 63.9442 15.4997H63.6842C63.5109 15.4997 63.4242 15.4357 63.4242 15.3077V14.3637C63.4201 14.3053 63.4359 14.2472 63.4689 14.1992C63.5018 14.1512 63.55 14.116 63.6054 14.0997C63.878 13.9992 64.1664 13.9504 64.4563 13.9557C64.7455 13.9297 65.0357 13.992 65.2898 14.1345C65.5438 14.2771 65.7502 14.4934 65.8824 14.7557C66.1362 14.4951 66.4397 14.2897 66.7743 14.1521C67.1089 14.0146 67.4676 13.9477 67.8285 13.9557ZM66.5994 18.2517C66.7399 18.4008 66.9086 18.5195 67.0955 18.6005C67.2824 18.6816 67.4835 18.7233 67.6866 18.7233C67.8898 18.7233 68.091 18.6816 68.2778 18.6005C68.4647 18.5195 68.6334 18.4008 68.7739 18.2517C69.0698 17.9166 69.2253 17.4775 69.2072 17.0277C69.2279 16.5776 69.0721 16.1375 68.7739 15.8037C68.6334 15.6547 68.4647 15.536 68.2778 15.455C68.091 15.3739 67.8898 15.3321 67.6866 15.3321C67.4835 15.3321 67.2824 15.3739 67.0955 15.455C66.9086 15.536 66.7399 15.6547 66.5994 15.8037C66.3127 16.1434 66.1635 16.5808 66.1818 17.0277C66.1658 17.4744 66.3148 17.9109 66.5994 18.2517Z" fill="#919191"/>
<path d="M74.6673 20.1638C73.96 20.1933 73.2587 20.0216 72.6425 19.6678C72.3952 19.5166 72.1847 19.3108 72.0264 19.0657C71.8682 18.8205 71.7664 18.5424 71.7285 18.2518C71.7285 18.0918 71.7837 18.0118 71.957 18.0118H73.1152C73.1703 18.0141 73.2238 18.0316 73.2696 18.0627C73.3155 18.0937 73.352 18.137 73.3752 18.1878C73.5406 18.6198 73.974 18.8358 74.6673 18.8358C74.9092 18.8471 75.15 18.7976 75.3685 18.6918C75.444 18.6573 75.5087 18.6025 75.5559 18.5335C75.6031 18.4645 75.6309 18.3837 75.6364 18.2998C75.6364 18.0918 75.5103 17.9478 75.2582 17.8518C74.9592 17.7508 74.65 17.6837 74.3364 17.6518C73.9649 17.6091 73.5965 17.5423 73.2334 17.4518C72.8802 17.3707 72.5592 17.184 72.3115 16.9158C72.1657 16.7336 72.0584 16.5228 71.9962 16.2966C71.934 16.0705 71.9183 15.8337 71.9501 15.6011C71.9819 15.3685 72.0604 15.1449 72.1809 14.9445C72.3014 14.7441 72.4612 14.5709 72.6503 14.4358C73.2182 14.0685 73.8845 13.8896 74.557 13.9238C75.2081 13.9015 75.8523 14.065 76.4164 14.3958C76.6438 14.5266 76.8395 14.7072 76.9894 14.9245C77.1394 15.1417 77.2396 15.3902 77.2831 15.6518C77.2831 15.8118 77.2122 15.8918 77.0703 15.8918H75.9043C75.8552 15.8948 75.8063 15.8826 75.7642 15.8569C75.722 15.8313 75.6885 15.7932 75.6679 15.7478C75.59 15.5584 75.4433 15.4065 75.2582 15.3238C75.0494 15.2129 74.8162 15.1578 74.5806 15.1638C74.3497 15.1511 74.1193 15.1979 73.9109 15.2998C73.8375 15.3286 73.7743 15.379 73.7293 15.4446C73.6844 15.5102 73.6598 15.588 73.6588 15.6678C73.6639 15.7773 73.7033 15.8821 73.7714 15.9671C73.8395 16.0521 73.9325 16.1125 74.037 16.1398C74.3395 16.2557 74.6541 16.3361 74.9746 16.3798C75.3431 16.4291 75.7086 16.4985 76.0697 16.5878C76.4229 16.669 76.7439 16.8557 76.9915 17.1238C77.1241 17.2716 77.2263 17.4445 77.2926 17.6326C77.3589 17.8207 77.3878 18.0203 77.3776 18.2198C77.3844 18.4964 77.3205 18.77 77.1921 19.014C77.0636 19.2579 76.8751 19.4639 76.6449 19.6118C76.0563 19.9956 75.3665 20.1881 74.6673 20.1638Z" fill="#919191"/>
<path d="M85.7055 19.7637C85.7102 19.7921 85.7086 19.8211 85.7023 19.8491C85.6952 19.8771 85.6834 19.9033 85.6661 19.9264C85.6495 19.9495 85.6283 19.969 85.6038 19.9836C85.5794 19.9983 85.5526 20.0078 85.5243 20.0117C85.2367 20.1071 84.9365 20.1583 84.634 20.1637C84.3346 20.1952 84.032 20.1477 83.7563 20.0258C83.4797 19.9039 83.2394 19.7116 83.0582 19.4677C82.502 19.9535 81.7818 20.2028 81.0491 20.1637C80.7088 20.1796 80.3692 20.1231 80.0517 19.9977C79.7341 19.8723 79.4458 19.6809 79.2055 19.4357C78.9667 19.1788 78.7818 18.8756 78.6612 18.5443C78.5407 18.2131 78.4874 17.8605 78.5043 17.5077V14.3797C78.5043 14.2277 78.5752 14.1477 78.7249 14.1477H80.0485C80.1982 14.1477 80.2691 14.2277 80.2691 14.3797V17.2677C80.2549 17.6275 80.3755 17.9794 80.6079 18.2517C80.7237 18.3765 80.8647 18.4746 81.0207 18.5395C81.1767 18.6043 81.3454 18.6344 81.514 18.6277C81.6865 18.6354 81.859 18.6083 82.0214 18.5478C82.1837 18.4874 82.3326 18.3949 82.4594 18.2757C82.5792 18.1501 82.6729 18.0008 82.7336 17.8371C82.7951 17.6733 82.8218 17.4986 82.814 17.3237V14.3797C82.814 14.2277 82.8849 14.1477 83.0346 14.1477H84.374C84.5237 14.1477 84.5946 14.2277 84.5946 14.3797V18.1477C84.5946 18.4597 84.7285 18.6117 84.9885 18.6117C85.1106 18.6165 85.2327 18.6031 85.3509 18.5717C85.3809 18.5632 85.4124 18.5617 85.4423 18.5673C85.4731 18.5728 85.5014 18.5853 85.5266 18.6038C85.5518 18.6223 85.5723 18.6463 85.5873 18.6739C85.6015 18.7016 85.6094 18.7323 85.6109 18.7637L85.7055 19.7637Z" fill="#919191"/>
<path d="M98.2247 19.7637C98.2318 19.7923 98.2326 19.8222 98.2271 19.8512C98.2208 19.8801 98.209 19.9074 98.1916 19.9311C98.1743 19.9548 98.1522 19.9743 98.1262 19.9882C98.101 20.0022 98.0727 20.0102 98.0435 20.0117C97.7504 20.1084 97.4455 20.1597 97.1375 20.1637C96.6687 20.1882 96.2062 20.0531 95.8217 19.7797C95.6555 19.6625 95.5207 19.5057 95.4286 19.3229C95.3364 19.1401 95.2899 18.9369 95.2938 18.7317V16.8517C95.3104 16.4929 95.1922 16.1412 94.9629 15.8677C94.8526 15.7426 94.7155 15.6441 94.5635 15.579C94.4106 15.5141 94.2459 15.4842 94.0805 15.4917C93.9316 15.486 93.7835 15.5147 93.6464 15.5757C93.5101 15.6366 93.3895 15.7283 93.2926 15.8437C93.0846 16.1117 92.9782 16.4468 92.9932 16.7877V19.7397C92.9932 19.8917 92.9223 19.9717 92.7726 19.9717H91.4411C91.4104 19.9756 91.3789 19.9722 91.3497 19.962C91.3198 19.9517 91.293 19.9347 91.2709 19.9123C91.2489 19.89 91.2323 19.8628 91.2221 19.8329C91.2118 19.8029 91.2087 19.7711 91.2126 19.7397V16.8517C91.2299 16.4969 91.1204 16.1476 90.9053 15.8677C90.8092 15.7501 90.6887 15.6554 90.5524 15.5905C90.4169 15.5255 90.2679 15.4917 90.1175 15.4917C89.9567 15.4851 89.7968 15.513 89.6471 15.5737C89.4974 15.6344 89.3627 15.7264 89.2508 15.8437C89.0255 16.1032 88.9096 16.4422 88.9278 16.7877V19.7397C88.9317 19.7711 88.9286 19.8029 88.9183 19.8329C88.9081 19.8628 88.8915 19.89 88.8695 19.9123C88.8474 19.9347 88.8206 19.9517 88.7915 19.962C88.7615 19.9722 88.73 19.9756 88.6993 19.9717H87.415C87.2653 19.9717 87.1944 19.8917 87.1944 19.7397V15.9717C87.2039 15.9075 87.1984 15.8421 87.1779 15.7805C87.1582 15.7189 87.1243 15.6629 87.0786 15.6171C87.0337 15.5713 86.9785 15.5368 86.9179 15.5164C86.8572 15.496 86.7926 15.4903 86.7296 15.4997H86.4696C86.2962 15.4997 86.2096 15.4357 86.2096 15.3077V14.3637C86.2056 14.3053 86.2214 14.2472 86.2545 14.1992C86.2876 14.1511 86.3356 14.116 86.3908 14.0997C86.6634 13.9991 86.9518 13.9503 87.2417 13.9557C87.5198 13.9316 87.7995 13.9879 88.0477 14.1181C88.2959 14.2484 88.5023 14.4472 88.6441 14.6917C88.9096 14.4359 89.2248 14.2385 89.5691 14.1118C89.9134 13.9852 90.2798 13.9321 90.6453 13.9557C91.0007 13.9381 91.3544 14.0057 91.679 14.153C92.0036 14.3004 92.2889 14.5233 92.5126 14.8037C92.7734 14.5159 93.0941 14.2906 93.451 14.1439C93.8079 13.9973 94.1924 13.933 94.5769 13.9557C94.9204 13.9393 95.2639 13.9956 95.5853 14.1209C95.9068 14.2462 96.1991 14.4378 96.4441 14.6837C96.6836 14.9401 96.8688 15.2432 96.9893 15.5746C97.1099 15.906 97.1635 16.2589 97.1453 16.6117V18.1557C97.1453 18.4597 97.2793 18.6117 97.5314 18.6117C97.6535 18.6174 97.7756 18.604 97.8938 18.5717C98.0569 18.5717 98.1436 18.6357 98.1538 18.7637L98.2247 19.7637Z" fill="#919191"/>
<path d="M5.83817 13.1078C6.41944 10.7356 7.76566 8.62893 9.66245 7.12344C11.5593 5.61792 13.8976 4.80005 16.3051 4.80005C18.7127 4.80005 21.051 5.61792 22.9478 7.12344C24.8446 8.62893 26.1908 10.7356 26.7721 13.1078H25.8267C24.2317 13.084 22.6695 13.568 21.3594 14.4918C21.2837 14.5474 21.2048 14.5982 21.123 14.6438H21.0127C20.9309 14.5982 20.852 14.5474 20.7763 14.4918C19.4546 13.5893 17.8979 13.1073 16.3051 13.1073C14.7124 13.1073 13.1557 13.5893 11.8339 14.4918C11.7583 14.5474 11.6793 14.5982 11.5976 14.6438H11.4873C11.4055 14.5982 11.3265 14.5474 11.2509 14.4918C9.94073 13.568 8.37852 13.084 6.78362 13.1078H5.83817ZM24.1248 18.1238C24.6102 17.74 25.2117 17.5393 25.8267 17.5558H27.0951V14.9878H25.8267C24.7435 14.9745 23.6851 15.3168 22.8091 15.9638C22.3161 16.3329 21.7198 16.532 21.1073 16.532C20.4948 16.532 19.8984 16.3329 19.4054 15.9638C18.5072 15.3289 17.439 14.9885 16.3445 14.9885C15.2501 14.9885 14.1819 15.3289 13.2836 15.9638C12.7906 16.3329 12.1943 16.532 11.5818 16.532C10.9693 16.532 10.373 16.3329 9.87998 15.9638C8.99315 15.3085 7.91958 14.9658 6.82302 14.9878H5.51514V17.5558H6.78362C7.39857 17.5393 8.00011 17.74 8.48544 18.1238C9.38205 18.7592 10.4491 19.0998 11.5424 19.0998C12.6357 19.0998 13.7028 18.7592 14.5994 18.1238C15.0853 17.7412 15.6864 17.5406 16.3012 17.5558C16.9164 17.5379 17.5183 17.7388 18.003 18.1238C18.9013 18.7588 19.9695 19.0991 21.0639 19.0991C22.1584 19.0991 23.2266 18.7588 24.1248 18.1238ZM24.1248 22.7158C24.6102 22.3321 25.2117 22.1313 25.8267 22.1478H27.0951V19.5798H25.8267C24.7435 19.5665 23.6851 19.9089 22.8091 20.5558C22.3161 20.9249 21.7198 21.124 21.1073 21.124C20.4948 21.124 19.8984 20.9249 19.4054 20.5558C18.5072 19.9209 17.439 19.5806 16.3445 19.5806C15.2501 19.5806 14.1819 19.9209 13.2836 20.5558C12.7906 20.9249 12.1943 21.124 11.5818 21.124C10.9693 21.124 10.373 20.9249 9.87998 20.5558C8.99315 19.9006 7.91958 19.5578 6.82302 19.5798H5.51514V22.1478H6.78362C7.39857 22.1313 8.00011 22.3321 8.48544 22.7158C9.38205 23.3512 10.4491 23.6918 11.5424 23.6918C12.6357 23.6918 13.7028 23.3512 14.5994 22.7158C15.0853 22.3333 15.6864 22.1326 16.3012 22.1478C16.9164 22.1299 17.5183 22.3309 18.003 22.7158C18.9013 23.3508 19.9695 23.6911 21.0639 23.6911C22.1584 23.6911 23.2266 23.3508 24.1248 22.7158Z" fill="#919191"/>
</svg>
