<svg width="30" height="30" viewBox="0 0 30 30" fill="none" xmlns="http://www.w3.org/2000/svg">
<path d="M1.875 11.375C1.875 8.04968 1.875 6.38703 2.52215 5.11693C3.0914 3.99972 3.99972 3.0914 5.11693 2.52215C6.38703 1.875 8.04968 1.875 11.375 1.875H18.625C21.9503 1.875 23.613 1.875 24.883 2.52215C26.0002 3.0914 26.9086 3.99972 27.4778 5.11693C28.125 6.38703 28.125 8.04968 28.125 11.375V18.625C28.125 21.9503 28.125 23.613 27.4778 24.883C26.9086 26.0002 26.0002 26.9086 24.883 27.4778C23.613 28.125 21.9503 28.125 18.625 28.125H11.375C8.04968 28.125 6.38703 28.125 5.11693 27.4778C3.99972 26.9086 3.0914 26.0002 2.52215 24.883C1.875 23.613 1.875 21.9503 1.875 18.625V11.375Z" fill="#001E36"/>
<path d="M7.5 21.1089V9.56569C7.5 9.48722 7.53281 9.44231 7.60938 9.44231C8.73966 9.44231 9.86944 9.375 11 9.375C12.8346 9.375 14.8209 10.0023 15.5172 11.9214C15.6813 12.3926 15.7687 12.875 15.7687 13.3798C15.7687 14.3446 15.55 15.141 15.1125 15.7692C13.8904 17.524 11.7722 17.4967 9.87347 17.4967V21.0978C9.88828 21.2044 9.79744 21.2548 9.70941 21.2548H7.63125C7.54375 21.2548 7.5 21.2099 7.5 21.1089ZM9.88434 11.6074V15.3766C10.6372 15.4317 11.425 15.4377 12.1484 15.1972C12.9471 14.9667 13.3844 14.2755 13.3844 13.4471C13.4065 12.7413 13.022 12.064 12.3672 11.8093C11.6526 11.5121 10.6558 11.4943 9.88434 11.6074Z" fill="#31A8FF"/>
<path d="M22.5906 14.6319C22.2596 14.4574 21.9071 14.3298 21.5427 14.2526C21.0746 14.1424 19.2279 13.7566 19.2271 14.7222C19.2435 15.2612 20.0993 15.5253 20.4774 15.6794C21.8048 16.1351 23.3068 16.9497 23.2773 18.5872C23.3179 20.6257 21.3428 21.4407 19.6497 21.4409C18.7684 21.45 17.8502 21.3135 17.0436 20.9351C16.9665 20.8943 16.917 20.8072 16.9203 20.7183V18.7678C16.9116 18.6896 16.9956 18.6212 17.0612 18.6775C17.8515 19.1554 18.7883 19.3876 19.7026 19.3999C20.1062 19.3999 20.9061 19.3608 20.9001 18.7678C20.9001 18.1987 19.9432 17.9371 19.5617 17.7925C19.0088 17.5951 18.4845 17.3217 18.0033 16.9798C17.3307 16.5001 16.9089 15.7309 16.9203 14.8847C16.9164 12.9653 18.7345 12.1037 20.3718 12.1034C21.1372 12.097 21.9592 12.1537 22.6717 12.4646C22.7741 12.4947 22.7953 12.6027 22.795 12.6993V14.5235C22.8014 14.6368 22.6757 14.6753 22.5906 14.6319Z" fill="#31A8FF"/>
</svg>
