<svg width="69" height="13" viewBox="0 0 69 13" fill="none" xmlns="http://www.w3.org/2000/svg">
<path d="M5.62207 1.60979C6.00107 0.914845 6.99893 0.914845 7.37793 1.60979L8.29764 3.29619C8.44147 3.55992 8.69624 3.74502 8.9915 3.80031L10.8796 4.15388C11.6576 4.29958 11.966 5.2486 11.4222 5.8238L10.1025 7.21963C9.89613 7.43791 9.79882 7.73741 9.83747 8.03531L10.0847 9.94023C10.1865 10.7252 9.37923 11.3117 8.66414 10.9723L6.92883 10.1486C6.65745 10.0197 6.34255 10.0197 6.07117 10.1486L4.33586 10.9723C3.62077 11.3117 2.81349 10.7252 2.91535 9.94023L3.16253 8.03531C3.20118 7.73741 3.10387 7.43791 2.8975 7.21963L1.57784 5.8238C1.03402 5.2486 1.34238 4.29958 2.12042 4.15388L4.0085 3.80031C4.30376 3.74502 4.55853 3.55992 4.70236 3.29619L5.62207 1.60979Z" fill="#29FFFF"/>
<path d="M19.6221 1.60979C20.0011 0.914845 20.9989 0.914845 21.3779 1.60979L22.2976 3.29619C22.4415 3.55992 22.6962 3.74502 22.9915 3.80031L24.8796 4.15388C25.6576 4.29958 25.966 5.2486 25.4222 5.8238L24.1025 7.21963C23.8961 7.43791 23.7988 7.73741 23.8375 8.03531L24.0847 9.94023C24.1865 10.7252 23.3792 11.3117 22.6641 10.9723L20.9288 10.1486C20.6575 10.0197 20.3425 10.0197 20.0712 10.1486L18.3359 10.9723C17.6208 11.3117 16.8135 10.7252 16.9153 9.94023L17.1625 8.03531C17.2012 7.73741 17.1039 7.43791 16.8975 7.21963L15.5778 5.8238C15.034 5.2486 15.3424 4.29958 16.1204 4.15388L18.0085 3.80031C18.3038 3.74502 18.5585 3.55992 18.7024 3.29619L19.6221 1.60979Z" fill="#29FFFF"/>
<path d="M33.6221 1.60979C34.0011 0.914845 34.9989 0.914845 35.3779 1.60979L36.2976 3.29619C36.4415 3.55992 36.6962 3.74502 36.9915 3.80031L38.8796 4.15388C39.6576 4.29958 39.966 5.2486 39.4222 5.8238L38.1025 7.21963C37.8961 7.43791 37.7988 7.73741 37.8375 8.03531L38.0847 9.94023C38.1865 10.7252 37.3792 11.3117 36.6641 10.9723L34.9288 10.1486C34.6575 10.0197 34.3425 10.0197 34.0712 10.1486L32.3359 10.9723C31.6208 11.3117 30.8135 10.7252 30.9153 9.94023L31.1625 8.03531C31.2012 7.73741 31.1039 7.43791 30.8975 7.21963L29.5778 5.8238C29.034 5.2486 29.3424 4.29958 30.1204 4.15388L32.0085 3.80031C32.3038 3.74502 32.5585 3.55992 32.7024 3.29619L33.6221 1.60979Z" fill="#29FFFF"/>
<path d="M47.6221 1.60979C48.0011 0.914845 48.9989 0.914845 49.3779 1.60979L50.2976 3.29619C50.4415 3.55992 50.6962 3.74502 50.9915 3.80031L52.8796 4.15388C53.6576 4.29958 53.966 5.2486 53.4222 5.8238L52.1025 7.21963C51.8961 7.43791 51.7988 7.73741 51.8375 8.03531L52.0847 9.94023C52.1865 10.7252 51.3792 11.3117 50.6641 10.9723L48.9288 10.1486C48.6575 10.0197 48.3425 10.0197 48.0712 10.1486L46.3359 10.9723C45.6208 11.3117 44.8135 10.7252 44.9153 9.94023L45.1625 8.03531C45.2012 7.73741 45.1039 7.43791 44.8975 7.21963L43.5778 5.8238C43.034 5.2486 43.3424 4.29958 44.1204 4.15388L46.0085 3.80031C46.3038 3.74502 46.5585 3.55992 46.7024 3.29619L47.6221 1.60979Z" fill="#29FFFF"/>
<path d="M61.6221 1.60979C62.0011 0.914845 62.9989 0.914845 63.3779 1.60979L64.2976 3.29619C64.4415 3.55992 64.6962 3.74502 64.9915 3.80031L66.8796 4.15388C67.6576 4.29958 67.966 5.2486 67.4222 5.8238L66.1025 7.21963C65.8961 7.43791 65.7988 7.73741 65.8375 8.03531L66.0847 9.94023C66.1865 10.7252 65.3792 11.3117 64.6641 10.9723L62.9288 10.1486C62.6575 10.0197 62.3425 10.0197 62.0712 10.1486L60.3359 10.9723C59.6208 11.3117 58.8135 10.7252 58.9153 9.94023L59.1625 8.03531C59.2012 7.73741 59.1039 7.43791 58.8975 7.21963L57.5778 5.8238C57.034 5.2486 57.3424 4.29958 58.1204 4.15388L60.0085 3.80031C60.3038 3.74502 60.5585 3.55992 60.7024 3.29619L61.6221 1.60979Z" fill="#29FFFF"/>
</svg>
